<?xml version="1.0" standalone="no"?>
<!DOCTYPE svg PUBLIC "-//W3C//DTD SVG 20010904//EN"
 "http://www.w3.org/TR/2001/REC-SVG-20010904/DTD/svg10.dtd">
<svg version="1.0" xmlns="http://www.w3.org/2000/svg"
 width="256.000000pt" height="256.000000pt" viewBox="0 0 256.000000 256.000000"
 preserveAspectRatio="xMidYMid meet">
<metadata>
Created by potrace 1.14, written by Peter Selinger 2001-2017
</metadata>
<g transform="translate(0.000000,256.000000) scale(0.100000,-0.100000)"
fill="#000000" stroke="none">
<path d="M1178 2355 c-2 -1 -28 -5 -58 -8 -210 -23 -454 -138 -623 -294 -37
-34 -116 -124 -166 -189 -51 -66 -134 -247 -161 -354 -29 -109 -35 -167 -34
-320 1 -222 41 -400 120 -536 l27 -46 -51 -44 c-131 -115 -124 -339 13 -424
83 -51 105 -53 500 -53 204 1 399 2 435 4 44 2 83 -4 120 -17 51 -18 86 -19
460 -19 394 0 407 1 464 22 67 26 114 59 152 109 23 29 27 45 27 97 0 106 -40
194 -119 257 -24 19 -40 37 -36 40 11 8 56 80 80 125 26 52 68 179 76 230 35
232 28 425 -19 594 -120 426 -469 735 -925 817 -35 6 -276 14 -282 9z"/>
</g>
</svg>
